HIERARCHY
ROOT hip
{
  OFFSET 0 0 0
  CHANNELS 6 Xposition Yposition Zposition Zrotation Yrotation Xrotation
  JOINT abdomen
  {
    OFFSET 0 20.6881 -0.73152
    CHANNELS 3 Zrotation Xrotation Yrotation
    JOINT chest
    {
      OFFSET 0 11.7043 -0.48768
      CHANNELS 3 Zrotation Xrotation Yrotation
      JOINT neck
      {
        OFFSET 0 22.1894 -2.19456
        CHANNELS 3 Zrotation Xrotation Yrotation
        JOINT head
        {
          OFFSET -0.24384 7.07133 1.2192
          CHANNELS 3 Zrotation Xrotation Yrotation
          JOINT leftEye
          {
            OFFSET 4.14528 8.04674 8.04672
            CHANNELS 3 Zrotation Xrotation Yrotation
            End Site
            {
              OFFSET 1 0 0
            }
          }
          JOINT rightEye
          {
            OFFSET -3.6576 8.04674 8.04672
            CHANNELS 3 Zrotation Xrotation Yrotation
            End Site
            {
              OFFSET 1 0 0
            }
          }
        }
      }
      JOINT rCollar
      {
        OFFSET -2.68224 19.2634 -4.8768
        CHANNELS 3 Zrotation Xrotation Yrotation
        JOINT rShldr
        {
          OFFSET -8.77824 -1.95073 1.46304
          CHANNELS 3 Zrotation Xrotation Yrotation
          JOINT rForeArm
          {
            OFFSET -28.1742 -1.7115 0.48768
            CHANNELS 3 Zrotation Xrotation Yrotation
            JOINT rHand
            {
              OFFSET -22.5879 0.773209 7.07136
              CHANNELS 3 Zrotation Xrotation Yrotation
              JOINT rThumb1
              {
                OFFSET -1.2192 -0.487915 3.41376
                CHANNELS 3 Zrotation Xrotation Yrotation
                JOINT rThumb2
                {
                  OFFSET -3.37035 -0.52449 3.41376
                  CHANNELS 3 Zrotation Xrotation Yrotation
                  End Site
                  {
                    OFFSET -1.78271 -1.18214 1.43049
                  }
                }
              }
              JOINT rIndex1
              {
                OFFSET -7.75947 0.938293 5.60832
                CHANNELS 3 Zrotation Xrotation Yrotation
                JOINT rIndex2
                {
                  OFFSET -2.54057 -0.884171 1.56538
                  CHANNELS 3 Zrotation Xrotation Yrotation
                  End Site
                  {
                    OFFSET -1.62519 -0.234802 1.16502
                  }
                }
              }
              JOINT rMid1
              {
                OFFSET -8.24714 1.18213 3.41376
                CHANNELS 3 Zrotation Xrotation Yrotation
                JOINT rMid2
                {
                  OFFSET -3.10165 -0.590103 1.0647
                  CHANNELS 3 Zrotation Xrotation Yrotation
                  End Site
                  {
                    OFFSET -2.48547 -0.328903 0.83742
                  }
                }
              }
              JOINT rRing1
              {
                OFFSET -8.82822 0.546677 1.51678
                CHANNELS 3 Zrotation Xrotation Yrotation
                JOINT rRing2
                {
                  OFFSET -2.60934 -0.819778 -0.0198488
                  CHANNELS 3 Zrotation Xrotation Yrotation
                  End Site
                  {
                    OFFSET -2.33842 -0.294052 0.168128
                  }
                }
              }
              JOINT rPinky1
              {
                OFFSET -8.27202 -0.0477905 -0.4584
                CHANNELS 3 Zrotation Xrotation Yrotation
                JOINT rPinky2
                {
                  OFFSET -1.82734 -0.647385 -0.700984
                  CHANNELS 3 Zrotation Xrotation Yrotation
                  End Site
                  {
                    OFFSET -1.69225 -0.51767 -0.607171
                  }
                }
              }
            }
          }
        }
      }
      JOINT lCollar
      {
        OFFSET 2.68224 19.2634 -4.8768
        CHANNELS 3 Zrotation Xrotation Yrotation
        JOINT lShldr
        {
          OFFSET 8.77824 -1.95073 1.46304
          CHANNELS 3 Zrotation Xrotation Yrotation
          JOINT lForeArm
          {
            OFFSET 28.1742 -1.7115 0.48768
            CHANNELS 3 Zrotation Xrotation Yrotation
            JOINT lHand
            {
              OFFSET 22.5879 0.773209 7.07136
              CHANNELS 3 Zrotation Xrotation Yrotation
              JOINT lThumb1
              {
                OFFSET 1.2192 -0.487915 3.41376
                CHANNELS 3 Zrotation Xrotation Yrotation
                JOINT lThumb2
                {
                  OFFSET 3.37035 -0.52449 3.41376
                  CHANNELS 3 Zrotation Xrotation Yrotation
                  End Site
                  {
                    OFFSET 1.78271 -1.18214 1.43049
                  }
                }
              }
              JOINT lIndex1
              {
                OFFSET 7.75947 0.938293 5.60832
                CHANNELS 3 Zrotation Xrotation Yrotation
                JOINT lIndex2
                {
                  OFFSET 2.54057 -0.884171 1.56538
                  CHANNELS 3 Zrotation Xrotation Yrotation
                  End Site
                  {
                    OFFSET 1.62519 -0.234802 1.16502
                  }
                }
              }
              JOINT lMid1
              {
                OFFSET 8.24714 1.18213 3.41376
                CHANNELS 3 Zrotation Xrotation Yrotation
                JOINT lMid2
                {
                  OFFSET 3.10165 -0.590103 1.0647
                  CHANNELS 3 Zrotation Xrotation Yrotation
                  End Site
                  {
                    OFFSET 2.48547 -0.328903 0.83742
                  }
                }
              }
              JOINT lRing1
              {
                OFFSET 8.82822 0.546677 1.51678
                CHANNELS 3 Zrotation Xrotation Yrotation
                JOINT lRing2
                {
                  OFFSET 2.60934 -0.819778 -0.0198488
                  CHANNELS 3 Zrotation Xrotation Yrotation
                  End Site
                  {
                    OFFSET 2.33842 -0.294052 0.168128
                  }
                }
              }
              JOINT lPinky1
              {
                OFFSET 8.27202 -0.0477905 -0.4584
                CHANNELS 3 Zrotation Xrotation Yrotation
                JOINT lPinky2
                {
                  OFFSET 1.82734 -0.647385 -0.700984
                  CHANNELS 3 Zrotation Xrotation Yrotation
                  End Site
                  {
                    OFFSET 1.69225 -0.51767 -0.607171
                  }
                }
              }
            }
          }
        }
      }
    }
  }
  JOINT rButtock
  {
    OFFSET -8.77824 4.35084 1.2192
    CHANNELS 3 Zrotation Xrotation Yrotation
    JOINT rThigh
    {
      OFFSET 0 -1.70687 -2.19456
      CHANNELS 3 Zrotation Xrotation Yrotation
      JOINT rShin
      {
        OFFSET 0 -36.8199 0.73152
        CHANNELS 3 Zrotation Xrotation Yrotation
        JOINT rFoot
        {
          OFFSET 0.73152 -45.1104 -5.12064
          CHANNELS 3 Zrotation Xrotation Yrotation
          End Site
          {
            OFFSET -1.1221 -3.69964 12.103
          }
        }
      }
    }
  }
  JOINT lButtock
  {
    OFFSET 8.77824 4.35084 1.2192
    CHANNELS 3 Zrotation Xrotation Yrotation
    JOINT lThigh
    {
      OFFSET 0 -1.70687 -2.19456
      CHANNELS 3 Zrotation Xrotation Yrotation
      JOINT lShin
      {
        OFFSET 0 -36.8199 0.73152
        CHANNELS 3 Zrotation Xrotation Yrotation
        JOINT lFoot
        {
          OFFSET -0.73152 -45.1104 -5.12064
          CHANNELS 3 Zrotation Xrotation Yrotation
          End Site
          {
            OFFSET 1.1221 -3.69964 12.103
          }
        }
      }
    }
  }
}
MOTION
Frames:	4
Frame Time:	0.00833333
58.6211 74.004 172.244 180.671 -0.4557 -133.643 -6.82198 58.4839 18.8909 -5.40813 -11.0606 2.22121 12.1958 17.6205 -6.67207 -7.64684 -36.5645 -15.3687 -0.0 0.0 0.0 -0.0 0.0 0.0 -6.6974e-14 9.52206e-14 -2.79074e-13 36.8384 -37.3761 71.9496 -9.02995 -3.57252 15.9944 -0.227485 13.4408 1.92491 -2.13303e-09 4.68821e-10 2.12145e-09 -3.6672e-09 7.67152e-10 3.69345e-09 -2.13303e-09 4.68822e-10 2.12144e-09 7.73091 5.47488 0.417314 -2.13303e-09 4.68815e-10 2.12144e-09 2.90554 0.965183 0.102902 -2.13303e-09 4.68822e-10 2.12144e-09 10.2786 0.731801 0.0259123 -2.13304e-09 4.68822e-10 2.12144e-09 2.22167 -0.733487 -0.20892 -6.71119e-14 9.52242e-14 -2.79399e-13 -30.8697 -20.3378 -102.701 8.71409 -3.39608 -15.4108 0.0908961 -8.543 1.20983 4.87204e-09 4.85361e-09 4.6208e-10 8.42087e-09 8.41186e-09 8.19652e-10 4.87203e-09 4.85361e-09 4.62096e-10 -7.73091 5.47488 -0.417314 4.87204e-09 4.85362e-09 4.62082e-10 -2.90554 0.965183 -0.102902 4.87203e-09 4.85362e-09 4.62075e-10 -10.2786 0.731801 -0.0259123 4.87204e-09 4.85362e-09 4.62067e-10 -2.22167 -0.733487 0.20892 -2.03217e-16 0.0 -3.88251e-19 -50.08 -45.8783 -34.1225 -0.141833 34.3849 0.966691 -7.08681 -24.5145 -15.1926 2.03217e-16 0.0 3.88251e-19 56.2761 -41.0774 45.3613 0.258874 33.3267 -0.369133 -4.21906 -15.6723 -12.5183
58.7187 73.458 171.2 181.147 -0.1613 -133.872 -8.11986 60.1034 19.47 -5.10618 -11.5729 3.35814 12.3919 17.5318 -6.7183 -8.2998 -36.2154 -15.6567 -0.0 0.0 0.0 -0.0 0.0 0.0 2.14181e-15 1.48923e-13 -2.29099e-13 36.8447 -37.6326 72.5247 -9.15392 -3.64261 16.2246 -0.204532 12.7864 1.82767 3.09067e-10 -1.40712e-10 4.62574e-10 5.37762e-10 -2.44492e-10 7.99394e-10 3.0907e-10 -1.4071e-10 4.6257e-10 7.73091 5.47488 0.417314 3.09066e-10 -1.40715e-10 4.62571e-10 2.90554 0.965183 0.102902 3.09073e-10 -1.4071e-10 4.62569e-10 10.2786 0.731801 0.0259123 3.09066e-10 -1.4071e-10 4.62575e-10 2.22167 -0.733487 -0.20892 2.02965e-15 1.4893e-13 -2.29317e-13 -31.7376 -20.1083 -103.299 8.91959 -3.50943 -15.7918 0.102102 -9.00213 1.27615 3.56892e-09 5.69074e-09 2.6658e-09 6.15483e-09 9.84188e-09 4.62508e-09 3.56892e-09 5.69074e-09 2.66581e-09 -7.73091 5.47488 -0.417314 3.56892e-09 5.69074e-09 2.6658e-09 -2.90554 0.965183 -0.102902 3.56892e-09 5.69074e-09 2.66579e-09 -10.2786 0.731801 -0.0259123 3.56892e-09 5.69074e-09 2.66579e-09 -2.22167 -0.733487 0.20892 -2.03217e-16 0.0 -3.88251e-19 -49.5557 -45.8688 -33.8804 -0.158432 35.3583 0.989334 -6.71968 -24.7862 -14.3313 2.03217e-16 0.0 3.88251e-19 56.9822 -40.1899 46.0445 0.280164 34.7566 -0.396986 -4.65541 -16.1812 -13.2803
58.812 72.8961 170.154 181.615 0.123 -134.024 -9.47588 61.6151 20.0435 -4.78868 -12.0369 4.49966 12.5571 17.4099 -6.75435 -8.87863 -35.7603 -15.8957 -0.0 0.0 0.0 -0.0 0.0 0.0 6.90195e-14 1.7607e-13 -1.64725e-13 36.7091 -37.7579 73.0 -9.30174 -3.72723 16.4993 -0.177685 11.9448 1.70359 2.62055e-09 -7.15509e-10 -1.12915e-09 4.51754e-09 -1.19757e-09 -1.97772e-09 2.62055e-09 -7.15508e-10 -1.12915e-09 7.73091 5.47488 0.417314 2.62055e-09 -7.15508e-10 -1.12915e-09 2.90554 0.965183 0.102902 2.62056e-09 -7.15506e-10 -1.12915e-09 10.2786 0.731801 0.0259123 2.62055e-09 -7.15507e-10 -1.12914e-09 2.22167 -0.733487 -0.20892 6.8938e-14 1.7608e-13 -1.64838e-13 -32.4551 -19.8519 -103.731 9.16479 -3.64759 -16.2466 0.115343 -9.56425 1.35732 2.07891e-09 6.1075e-09 4.59797e-09 3.56748e-09 1.05457e-08 7.95996e-09 2.0789e-09 6.1075e-09 4.59798e-09 -7.73091 5.47488 -0.417314 2.07891e-09 6.10749e-09 4.59796e-09 -2.90554 0.965183 -0.102902 2.0789e-09 6.1075e-09 4.59796e-09 -10.2786 0.731801 -0.0259123 2.07891e-09 6.1075e-09 4.59795e-09 -2.22167 -0.733487 0.20892 -2.03217e-16 0.0 -3.88251e-19 -49.0034 -45.8662 -33.5105 -0.173765 36.2417 1.0096 -6.41121 -25.1443 -13.567 2.03217e-16 0.0 3.88251e-19 57.6018 -39.2984 46.6291 0.302095 36.1167 -0.423836 -5.12213 -16.7989 -14.0181
58.8925 72.3253 169.114 182.062 0.4472 -134.053 -10.8147 62.9588 20.8617 -4.56108 -12.4094 5.31027 12.6565 17.2414 -6.7844 -9.27147 -35.1641 -16.0548 -0.0 0.0 0.0 -0.0 0.0 0.0 1.05785e-13 1.35169e-13 -9.05961e-14 36.76 -37.7636 73.4991 -9.4703 -3.82567 16.8119 -0.158119 11.2617 1.60363 3.72388e-09 -1.04844e-09 -1.87181e-09 6.41751e-09 -1.75307e-09 -3.27444e-09 3.72388e-09 -1.04844e-09 -1.87182e-09 7.73091 5.47488 0.417314 3.72388e-09 -1.04844e-09 -1.87182e-09 2.90554 0.965183 0.102902 3.72389e-09 -1.04843e-09 -1.87181e-09 10.2786 0.731801 0.0259123 3.72388e-09 -1.04844e-09 -1.8718e-09 2.22167 -0.733487 -0.20892 1.05728e-13 1.35178e-13 -9.06458e-14 -33.0297 -19.5593 -104.04 9.44447 -3.81054 -16.7637 0.132509 -10.323 1.46687 8.38324e-10 5.50581e-09 5.16409e-09 1.41971e-09 9.49717e-09 8.93365e-09 8.38319e-10 5.5058e-09 5.1641e-09 -7.73091 5.47488 -0.417314 8.38324e-10 5.5058e-09 5.16409e-09 -2.90554 0.965183 -0.102902 8.38318e-10 5.5058e-09 5.16409e-09 -10.2786 0.731801 -0.0259123 8.38326e-10 5.5058e-09 5.16408e-09 -2.22167 -0.733487 0.20892 -2.03217e-16 0.0 -3.88251e-19 -48.4978 -45.8946 -33.1471 -0.188113 37.0388 1.02899 -6.20582 -25.585 -12.988 2.03217e-16 0.0 3.88251e-19 58.1437 -38.5038 47.1425 0.324559 37.4006 -0.449648 -5.58372 -17.5136 -14.648
